<svg fill="none" height="92" width="92" xmlns="http://www.w3.org/2000/svg"><path d="M46.015 74.03c13.815 0 25.015-11.2 25.015-25.015S59.83 24 46.015 24 21 35.2 21 49.015 32.2 74.03 46.015 74.03z" fill="#34aadf"/><path d="M31.726 48.467s12.39-5.271 16.688-7.128c1.648-.742 7.234-3.118 7.234-3.118s2.579-1.04 2.364 1.485c-.072 1.04-.645 4.677-1.218 8.613-.86 5.568-1.79 11.657-1.79 11.657s-.144 1.707-1.361 2.004-3.223-1.039-3.581-1.336c-.287-.223-5.372-3.564-7.235-5.197-.501-.446-1.074-1.337.072-2.376 2.579-2.45 5.658-5.495 7.52-7.425.86-.891 1.72-2.97-1.862-.446-5.085 3.638-10.099 7.054-10.099 7.054s-1.146.742-3.294.074c-2.15-.668-4.656-1.56-4.656-1.56s-1.72-1.113 1.218-2.3z" fill="#fff"/></svg>